# xmcd
#
# Track frame offsets:
# 183
# 14198
# 29655
# 44938
# 62968
# 81938
# 98675
# 115688
# 129493
# 148630
# 163565
# 181130
# 197575
# 213465
# 228530
# 246530
# 259288
#
# Disc length: 3665 seconds
#
#
# Revision: 0
# Processed by: cddbd v1.5.2PL0 Copyright (c) Steve Scherf et al.
# Submitted via: FreeRIP 2.945 
#
DISCID=050e4f11
DTITLE=Bailanta - 
DYEAR=1900
DGENRE=
TTITLE0=Ausência - Tchê Barbaridade
TTITLE1=Figueira, Sombra e Cantiga - Grupo Chimarrão
TTITLE2=Dia de Rodeio - Régis Marques
TTITLE3=Armando Buchincho - Grupo Rodeio
TTITLE4=Azulzinha Tentação - Telmo de Lima Freitas
TTITLE5=Parceiro - Luis Marenco
TTITLE6=Linda - Grupo Eco do Minuano e Bonitinho
TTITLE7=Bagual Demais - Zé Araújo
TTITLE8=Monarca das Coxilhas - Odilon Ramos e Grupo Pampa e Guitarra
TTITLE9=Revirando os Gravetos - Lobisomen
TTITLE10=Bugio MAcho não se Entrega - Cajarana
TTITLE11=Atentado - Tio Nanato
TTITLE12=Lourinha - Grupo Candeeiro
TTITLE13=O Cosa Feia - Grupo Quero Quero
TTITLE14=Castelhana - Odilon Ramos e Grupo Pampa e Guitarra
TTITLE15=Gauderiando - Os Tiranos
TTITLE16=Cantorias - Iedo Silva
EXTD=
EXTT0=
EXTT1=
EXTT2=
EXTT3=
EXTT4=
EXTT5=
EXTT6=
EXTT7=
EXTT8=
EXTT9=
EXTT10=
EXTT11=
EXTT12=
EXTT13=
EXTT14=
EXTT15=
EXTT16=
PLAYORDER=
